# xmcd
#
# Track frame offsets: 
#        150
#        2632
#        16549
#        33209
#        41349
#        60305
#        78322
#
# Disc length: 1285 seconds
#
# Revision: 0
# Processed by: cddbd v1.5.2PL0 Copyright (c) Steve Scherf et al.
# Submitted via: ExactAudioCopyFreeDBPlugin 1.0
#
DISCID=38050307
DTITLE=スモークポーク - ボセンカイキ
DYEAR=2014
DGENRE=Acoustic
TTITLE0=ボセンカイキ録
TTITLE1=indiangirl
TTITLE2=忘却への旅
TTITLE3=ふかく
TTITLE4=夢待ちの夜
TTITLE5=videotape
TTITLE6=スロウハンド輪
EXTD=
EXTT0=
EXTT1=
EXTT2=
EXTT3=
EXTT4=
EXTT5=
EXTT6=
PLAYORDER=
